<?xml version="1.0" standalone="no"?>
<!DOCTYPE svg PUBLIC "-//W3C//DTD SVG 20010904//EN"
 "http://www.w3.org/TR/2001/REC-SVG-20010904/DTD/svg10.dtd">
<svg version="1.0" xmlns="http://www.w3.org/2000/svg"
 width="725.000000pt" height="213.000000pt" viewBox="0 0 725.000000 213.000000"
 preserveAspectRatio="xMidYMid meet">

<g transform="translate(0.000000,213.000000) scale(0.100000,-0.100000)"
fill="#000000" stroke="none">
<path d="M5638 1973 c7 -3 16 -2 19 1 4 3 -2 6 -13 5 -11 0 -14 -3 -6 -6z"/>
<path d="M5672 1765 c-109 -24 -235 -77 -280 -119 -54 -48 -61 -86 -97 -511
-30 -351 -51 -750 -41 -789 6 -26 9 -28 44 -21 20 3 53 10 73 15 l35 10 -4 88
c-6 118 13 185 68 240 64 63 91 64 172 0 l36 -28 7 -141 c7 -123 10 -144 29
-166 24 -28 95 -47 139 -37 l30 6 -7 72 c-15 176 -26 399 -36 761 -5 215 -13
442 -16 507 -6 108 -8 117 -28 122 -30 8 -52 6 -124 -9z m-22 -162 c0 -5 9
-75 20 -158 24 -185 35 -404 26 -508 -6 -62 -13 -84 -33 -107 -24 -29 -28 -30
-104 -30 l-79 0 0 93 c0 136 14 208 85 461 36 125 65 235 65 242 0 14 20 20
20 7z"/>
<path d="M6176 1767 c3 -10 9 -15 12 -12 3 3 0 11 -7 18 -10 9 -11 8 -5 -6z"/>
<path d="M4423 1720 c-44 -27 -48 -59 -34 -284 6 -107 8 -193 3 -198 -5 -5
-26 8 -48 31 -68 67 -165 77 -227 22 -22 -20 -31 -40 -38 -80 -16 -104 -31
-428 -28 -601 4 -196 10 -215 76 -259 67 -43 107 -51 264 -51 168 0 161 -3
173 85 16 121 26 736 16 987 -10 265 -19 333 -48 356 -23 18 -72 15 -109 -8z
m-64 -589 c26 -26 35 -173 29 -447 -6 -231 -13 -261 -61 -277 -39 -13 -73 12
-87 64 -8 28 -10 140 -8 333 3 259 5 295 21 319 22 33 77 37 106 8z"/>
<path d="M2872 1698 c-29 -37 -43 -259 -43 -673 0 -328 12 -662 27 -757 7 -45
24 -49 82 -19 109 56 119 109 102 497 -13 292 -9 365 21 395 24 24 70 25 99 1
27 -22 27 -31 16 -417 -12 -399 -3 -435 106 -435 97 0 104 30 95 435 -7 300
-19 440 -42 485 -32 61 -111 93 -178 71 -18 -6 -51 -29 -72 -51 -22 -22 -43
-40 -47 -40 -11 0 -10 126 3 273 12 144 4 194 -38 226 -29 24 -114 29 -131 9z"/>
<path d="M2084 1690 c-33 -13 -64 -59 -64 -96 0 -76 40 -110 128 -108 74 2
106 26 110 84 5 63 -5 88 -41 110 -33 21 -96 25 -133 10z"/>
<path d="M567 1674 c-64 -20 -131 -85 -148 -144 -18 -67 -19 -987 -1 -1050 36
-122 114 -174 262 -172 144 1 213 30 247 103 24 50 43 161 43 244 0 55 -1 56
-37 72 -39 16 -96 14 -145 -5 l-27 -11 6 -88 c7 -114 -8 -163 -54 -176 -43
-13 -79 -2 -100 30 -16 25 -18 67 -21 471 -4 478 2 565 39 595 28 22 78 21
109 -2 22 -18 25 -28 30 -121 6 -121 13 -130 102 -130 45 0 63 5 79 21 19 19
20 28 14 97 -16 173 -62 249 -165 271 -70 15 -175 13 -233 -5z"/>
<path d="M5921 1361 c-29 -29 -36 -120 -36 -456 1 -269 14 -509 31 -574 6 -21
11 -23 46 -18 22 3 57 17 78 31 31 20 40 34 51 78 16 62 17 224 5 529 -9 213
-9 216 12 237 27 27 72 28 103 3 l24 -19 -3 -349 c-4 -397 -1 -445 33 -479 20
-20 34 -24 84 -24 59 0 60 0 70 33 25 73 31 202 21 407 -13 252 -26 404 -40
451 -19 68 -83 109 -170 109 -43 0 -55 -5 -97 -42 l-48 -41 -5 49 c-5 46 -7
50 -50 72 -54 27 -84 28 -109 3z"/>
<path d="M2093 1292 c-24 -15 -34 -68 -45 -243 -16 -260 9 -694 43 -735 7 -9
32 -14 70 -14 l59 0 -1 448 c0 246 -4 470 -7 497 l-7 50 -50 3 c-27 1 -55 -1
-62 -6z"/>
<path d="M1226 1279 c-61 -15 -112 -48 -134 -88 -29 -52 -42 -173 -42 -396 0
-203 12 -342 35 -384 35 -68 108 -101 224 -101 95 0 142 13 185 51 51 45 57
82 63 399 7 389 -5 443 -112 495 -57 28 -159 39 -219 24z m146 -141 c15 -29
15 -639 -1 -681 -18 -46 -98 -49 -123 -4 -10 16 -13 100 -13 337 0 173 3 327
8 343 7 25 11 27 62 27 46 0 56 -3 67 -22z"/>
<path d="M1695 1281 c-84 -14 -117 -47 -100 -101 11 -36 50 -43 137 -25 43 9
83 13 88 10 18 -11 10 -113 -15 -194 -14 -44 -57 -150 -95 -235 -84 -186 -122
-295 -124 -356 -1 -43 0 -45 39 -59 62 -24 318 -22 367 3 55 27 58 63 11 117
-13 16 -19 15 -86 -2 -40 -10 -87 -19 -106 -19 l-34 0 5 82 c7 101 35 188 121
374 119 258 142 364 84 392 -33 16 -221 24 -292 13z"/>
<path d="M2293 1278 c-11 -19 -16 -703 -5 -846 6 -88 13 -126 23 -133 18 -11
110 -11 127 0 28 17 32 88 26 412 -7 347 -1 419 36 439 28 15 62 12 89 -9 l23
-18 2 -396 1 -396 30 -31 c37 -39 99 -72 128 -68 42 6 43 51 11 841 l-6 149
-40 28 c-45 33 -110 46 -149 32 -14 -6 -47 -29 -73 -51 -26 -23 -52 -39 -57
-36 -5 4 -9 20 -9 36 0 25 -6 33 -35 45 -42 17 -111 18 -122 2z"/>
<path d="M6637 1236 c-27 -7 -61 -22 -75 -33 -49 -36 -82 -184 -48 -212 9 -7
38 -11 73 -9 l58 3 8 40 c5 22 11 50 13 62 9 51 76 71 112 35 24 -24 51 -210
32 -222 -7 -4 -64 -18 -127 -30 -125 -25 -152 -40 -183 -101 -17 -32 -20 -59
-20 -172 0 -204 25 -264 120 -286 72 -17 85 -14 141 34 60 51 92 61 65 20 -17
-25 -17 -26 20 -41 49 -20 85 -15 102 16 21 40 3 543 -29 778 -16 115 -25 125
-130 129 -50 2 -103 -3 -132 -11z m165 -453 c22 -19 24 -103 7 -234 -16 -119
-21 -129 -64 -129 -76 0 -95 37 -94 180 0 106 14 148 58 177 40 27 68 29 93 6z"/>
<path d="M3605 1225 c-5 -2 -22 -6 -37 -9 -67 -15 -111 -89 -120 -201 l-3 -40
49 -7 c51 -7 94 3 100 24 3 7 7 30 11 52 7 44 44 86 75 86 41 0 66 -40 78
-123 20 -134 26 -128 -128 -153 -92 -16 -108 -22 -153 -57 l-49 -39 4 -182 c5
-197 12 -227 63 -260 15 -10 50 -20 79 -23 60 -6 94 8 140 56 37 39 49 39 41
1 -6 -28 -4 -32 31 -46 46 -19 79 -8 95 33 19 49 -13 677 -42 820 -9 45 -14
53 -41 62 -28 10 -169 14 -193 6z m147 -452 c15 -13 18 -31 18 -97 0 -112 -17
-216 -39 -246 -36 -50 -103 -35 -121 28 -12 46 -13 222 -1 255 10 25 84 77
110 77 8 0 23 -7 33 -17z"/>
<path d="M4842 1221 c-77 -13 -126 -68 -138 -154 -4 -25 -4 -57 0 -72 6 -25 9
-26 74 -23 50 2 67 7 69 18 12 93 39 140 81 140 42 0 62 -31 77 -120 8 -47 15
-93 15 -103 0 -22 -31 -34 -135 -53 -95 -17 -117 -26 -168 -66 l-39 -31 4
-181 c3 -160 5 -185 23 -216 25 -43 76 -70 133 -70 52 0 75 11 124 58 38 36
62 37 40 1 -17 -26 -9 -36 38 -50 60 -18 86 4 96 78 13 107 -30 750 -55 816
-6 16 -20 26 -41 31 -40 7 -140 6 -198 -3z m158 -458 c21 -26 22 -35 16 -128
-7 -116 -28 -214 -47 -226 -18 -11 -70 -11 -88 0 -18 11 -30 84 -30 189 -1
104 14 144 66 171 50 27 58 26 83 -6z"/>
</g>
</svg>
