<?xml version="1.0" standalone="no"?>
<!DOCTYPE svg PUBLIC "-//W3C//DTD SVG 20010904//EN"
 "http://www.w3.org/TR/2001/REC-SVG-20010904/DTD/svg10.dtd">
<svg version="1.0" xmlns="http://www.w3.org/2000/svg"
 width="580.000000pt" height="170.000000pt" viewBox="0 0 580.000000 170.000000"
 preserveAspectRatio="xMidYMid meet">

<g transform="translate(0.000000,170.000000) scale(0.100000,-0.100000)"
fill="#000000" stroke="none">
<path d="M1535 1694 c-89 -21 -116 -30 -157 -51 -76 -37 -81 -58 -43 -179 24
-75 25 -77 24 -34 -2 66 -2 66 39 62 28 -2 33 -1 22 7 -12 9 -11 11 8 11 15 0
21 4 16 11 -5 9 1 10 21 5 15 -4 41 -9 59 -12 25 -3 27 -3 11 5 l-20 10 20 0
c16 1 17 3 5 11 -8 5 -19 5 -25 1 -5 -5 -25 -6 -42 -4 -58 9 -34 55 27 52 8
-1 4 -5 -10 -9 l-25 -8 27 -1 c15 -1 29 -5 32 -10 8 -12 121 -30 183 -28 28 0
49 5 46 10 -3 5 15 5 42 1 35 -5 46 -4 41 5 -4 6 -17 12 -29 12 -51 3 53 15
118 14 49 -1 62 1 45 6 -18 7 -14 7 16 4 32 -4 43 -1 48 11 6 16 15 16 61 -1
16 -5 17 -5 5 4 -13 9 -13 11 0 11 9 1 6 5 -8 10 -12 5 -30 7 -40 4 -14 -5
-14 -4 -2 4 8 6 28 9 45 6 26 -3 27 -3 5 4 -22 7 -16 11 43 27 37 10 70 16 73
13 3 -4 -13 -9 -35 -13 -23 -4 -44 -11 -47 -17 -8 -13 51 -1 89 19 16 8 36 12
45 10 12 -3 10 -5 -5 -6 -13 0 -23 -5 -23 -11 0 -5 -17 -12 -37 -16 -56 -10
-68 -18 -49 -33 8 -7 20 -10 27 -6 8 6 8 10 -1 15 -7 5 11 6 41 4 79 -7 79 -7
79 -16 0 -4 5 -8 10 -8 6 0 10 12 10 26 0 26 -2 26 -42 20 -23 -4 -39 -3 -34
1 10 10 89 33 95 28 2 -3 -1 -5 -7 -5 -7 0 -12 -4 -12 -10 0 -5 16 -10 35 -10
19 0 35 4 35 9 0 4 12 6 26 3 19 -3 25 -1 20 7 -4 6 -1 11 8 11 27 0 5 -30
-23 -31 -14 -1 -1 -5 29 -10 31 -4 70 -4 90 1 30 8 32 7 18 -4 -16 -12 -14
-13 14 -14 23 -1 28 2 18 8 -13 8 -12 10 3 10 10 0 20 -7 23 -15 7 -17 24 -20
24 -5 0 15 -84 49 -163 66 -131 27 -298 12 -404 -37 -48 -22 -117 -33 -107
-17 7 11 -3 10 -29 -3 -21 -10 -21 -9 -3 5 18 15 16 17 -30 37 -41 18 -73 22
-199 25 -82 1 -159 1 -170 -2z m295 -24 c10 -6 2 -7 -25 -3 -49 7 -58 13 -19
13 16 0 36 -5 44 -10z m677 -6 c-3 -3 -12 -4 -19 -1 -8 3 -5 6 6 6 11 1 17 -2
13 -5z m-1056 -13 c-8 -5 -10 -14 -6 -22 6 -11 5 -11 -5 -2 -14 12 -6 33 13
33 8 0 7 -3 -2 -9z m102 2 c-7 -2 -21 -2 -30 0 -10 3 -4 5 12 5 17 0 24 -2 18
-5z m352 -3 c13 -5 14 -9 5 -9 -8 0 -24 4 -35 9 -13 5 -14 9 -5 9 8 0 24 -4
35 -9z m-400 -10 c13 -6 15 -9 5 -9 -8 0 -22 4 -30 9 -18 12 -2 12 25 0z m255
0 c0 -5 -8 -10 -17 -10 -15 0 -16 2 -3 10 19 12 20 12 20 0z m47 4 c-3 -3 -12
-4 -19 -1 -8 3 -5 6 6 6 11 1 17 -2 13 -5z m700 0 c-3 -3 -12 -4 -19 -1 -8 3
-5 6 6 6 11 1 17 -2 13 -5z m-914 -11 c-7 -2 -21 -2 -30 0 -10 3 -4 5 12 5 17
0 24 -2 18 -5z m292 -3 c18 -8 18 -9 -5 -9 -14 0 -34 4 -45 9 -18 8 -18 9 5 9
14 0 34 -4 45 -9z m352 4 c-3 -3 -12 -4 -19 -1 -8 3 -5 6 6 6 11 1 17 -2 13
-5z m-440 -10 c-3 -3 -12 -4 -19 -1 -8 3 -5 6 6 6 11 1 17 -2 13 -5z m-441
-64 c-2 -33 -6 -63 -9 -67 -4 -3 -7 0 -7 8 0 8 -3 25 -7 38 -4 17 -3 22 5 17
8 -5 12 1 12 16 0 18 -2 20 -10 8 -5 -8 -10 -12 -10 -7 0 7 23 47 27 47 1 0 1
-27 -1 -60z m477 43 c-7 -2 -21 -2 -30 0 -10 3 -4 5 12 5 17 0 24 -2 18 -5z
m-153 -36 c0 -8 -3 -8 -11 0 -5 5 -21 8 -35 5 -19 -3 -22 -7 -12 -13 10 -7 9
-9 -4 -9 -9 0 -25 3 -35 7 -14 5 -7 10 27 18 48 12 70 10 70 -8z m163 16 c-7
-2 -19 -2 -25 0 -7 3 -2 5 12 5 14 0 19 -2 13 -5z m-170 -40 c-7 -2 -19 -2
-25 0 -7 3 -2 5 12 5 14 0 19 -2 13 -5z"/>
<path d="M4390 1680 c-63 -3 -126 -11 -140 -17 -34 -15 -66 -51 -85 -97 -20
-48 -13 -58 9 -14 9 18 22 41 29 50 14 17 47 20 58 4 8 -11 31 2 24 14 -3 4 4
10 15 13 22 6 26 -3 9 -20 -7 -7 -3 -9 15 -6 14 3 26 1 26 -5 0 -14 74 -24
101 -13 23 8 23 8 4 19 -11 5 -39 8 -62 5 -30 -3 -43 -1 -43 7 0 8 9 11 25 8
23 -5 35 5 18 15 -5 2 -1 2 7 -1 28 -8 65 -9 76 -1 6 5 37 5 70 0 32 -5 50
-10 39 -11 -27 -3 -25 -3 -70 4 -29 5 -36 4 -25 -3 10 -7 11 -11 3 -11 -7 0
-13 -7 -13 -15 0 -11 11 -15 43 -15 31 0 38 -3 27 -10 -11 -7 -1 -10 35 -11
28 0 69 -2 93 -4 30 -2 42 0 39 8 -2 7 -19 11 -36 9 l-32 -2 20 21 c11 12 24
18 30 15 5 -4 12 -2 16 3 3 5 -12 12 -32 14 l-38 4 37 1 c29 2 40 -3 49 -20 7
-13 17 -26 23 -30 8 -5 7 -11 -2 -20 -6 -6 -12 -21 -12 -32 0 -17 2 -18 10 -6
8 12 10 12 11 -5 l0 -20 9 20 9 20 1 -20 c1 -11 4 -14 7 -7 3 8 11 5 24 -10
l20 -23 -14 25 c-12 21 -13 30 -2 60 8 19 14 29 14 22 1 -7 5 -10 11 -7 6 3 7
-1 4 -9 -3 -9 -11 -13 -16 -10 -6 4 -8 1 -6 -7 3 -8 11 -13 17 -12 6 2 11 -4
11 -12 0 -8 6 -15 13 -15 16 0 40 -47 32 -61 -3 -5 1 -6 10 -3 13 5 12 11 -7
45 -12 21 -26 39 -30 39 -5 0 -7 4 -3 9 6 11 -15 61 -26 61 -5 0 -6 6 -3 13 9
24 -22 50 -72 58 -54 9 -197 8 -374 -1z m-42 -21 c-32 -4 -68 -14 -80 -20 -21
-11 -22 -11 -10 4 16 18 40 24 102 24 43 1 43 0 -12 -8z m291 -5 c8 -7 -104
-2 -134 6 -18 5 3 6 50 3 44 -3 82 -7 84 -9z m84 9 c-7 -2 -19 -2 -25 0 -7 3
-2 5 12 5 14 0 19 -2 13 -5z m34 -19 c-3 -3 -12 -4 -19 -1 -8 3 -5 6 6 6 11 1
17 -2 13 -5z m63 -14 c-6 -4 -10 -10 -8 -14 1 -3 -1 -22 -6 -42 -6 -24 -12
-32 -19 -25 -7 7 -7 14 1 24 10 12 19 40 21 70 1 5 6 5 12 1 8 -5 8 -9 -1 -14z
m-33 -6 c-3 -3 -12 -4 -19 -1 -8 3 -5 6 6 6 11 1 17 -2 13 -5z"/>
<path d="M3490 1649 c-29 -12 -60 -38 -60 -51 0 -4 9 -3 19 4 11 7 17 16 14
21 -3 5 5 6 18 2 19 -5 21 -4 9 4 -11 8 9 11 75 9 66 -2 89 -6 88 -15 -2 -8 7
-13 21 -13 17 0 31 -11 46 -35 24 -39 37 -48 19 -12 -17 33 -41 57 -72 73 -36
19 -145 27 -177 13z"/>
<path d="M368 1635 c-108 -22 -238 -90 -222 -117 4 -6 3 -8 -3 -5 -14 9 -37
-19 -27 -34 4 -8 3 -9 -5 -5 -27 17 -70 -138 -92 -334 -15 -133 -14 -507 1
-625 7 -49 12 -98 12 -107 -1 -9 6 -19 14 -22 8 -3 14 -16 13 -28 -1 -22 -1
-22 -9 2 -15 47 -11 -9 6 -75 12 -46 21 -65 33 -66 9 0 11 -3 4 -5 -7 -3 -9
-12 -6 -20 5 -13 8 -13 15 -2 7 9 8 8 4 -6 -7 -21 11 -49 25 -40 5 3 8 0 7 -8
-2 -7 4 -12 12 -10 8 2 12 0 7 -4 -8 -9 21 -44 37 -44 6 0 4 5 -4 11 -13 9
-13 10 0 6 8 -2 14 -10 12 -16 -3 -16 92 -57 163 -70 88 -16 141 -13 240 13
92 25 208 39 199 25 -10 -16 129 -48 186 -43 30 2 181 8 335 12 274 8 254 12
-80 16 -66 0 -122 4 -125 7 -3 4 -22 9 -42 12 -31 4 -38 2 -38 -12 0 -12 -2
-13 -8 -3 -5 7 -19 15 -33 18 -13 3 -31 7 -39 9 -8 2 -19 4 -25 4 -5 1 -3 6 5
11 12 8 10 10 -10 11 l-25 1 25 8 c20 7 21 8 5 9 -11 0 -29 -6 -39 -14 -13
-10 -32 -13 -58 -9 -23 4 -43 2 -52 -6 -8 -6 -23 -10 -33 -8 -13 3 -8 9 19 21
28 12 46 13 69 7 20 -6 38 -6 48 0 10 6 11 10 4 10 -7 0 -13 7 -13 16 0 13 -7
15 -35 10 -20 -4 -41 -3 -48 1 -6 4 -69 8 -139 8 -69 0 -121 -3 -115 -7 8 -5
4 -8 -9 -8 -29 0 -58 24 -51 43 5 12 -1 15 -28 13 -19 -2 -34 0 -33 3 2 18 -4
21 -17 8 -20 -20 -77 -16 -81 5 -2 17 18 15 44 -5 9 -7 17 -6 24 1 9 9 7 12
-11 12 -12 0 -19 4 -16 10 3 6 -1 7 -9 4 -9 -3 -16 -1 -16 4 0 6 -10 12 -22
14 -13 2 -24 9 -24 16 -3 23 -4 24 -19 12 -13 -10 -18 -11 -28 -1 -9 10 -8 11
8 5 17 -7 18 -5 8 8 -7 8 -10 18 -6 22 4 4 1 5 -7 2 -10 -4 -19 3 -27 19 -6
14 -7 23 -3 20 4 -3 6 4 3 16 -4 14 -8 17 -13 8 -6 -8 -9 -6 -12 7 -5 18 -5
18 -13 0 -5 -11 -3 -21 5 -26 8 -5 9 -9 1 -14 -20 -13 -30 3 -21 35 7 25 5 40
-12 73 -31 61 -35 69 -43 104 -8 37 -30 43 -38 10 -3 -13 -12 -41 -21 -63
l-15 -40 2 40 c1 22 -2 58 -5 80 -5 25 -4 33 1 20 5 -12 8 44 6 140 -2 113 0
136 4 80 7 -76 7 -73 8 45 0 72 -3 110 -7 90 -4 -24 -6 -9 -6 46 1 45 4 77 8
71 3 -6 8 1 11 14 2 13 3 -5 1 -41 -2 -44 -1 -54 4 -30 7 32 8 30 20 -35 14
-77 19 -86 33 -65 8 13 10 13 19 0 7 -12 10 -8 10 17 0 44 10 69 21 51 6 -8 9
5 10 37 3 63 3 64 -10 103 -6 19 -6 30 0 27 5 -4 10 -14 10 -23 1 -9 5 8 8 38
5 36 2 68 -6 94 -8 21 -11 41 -8 44 3 3 5 -1 5 -9 0 -12 2 -11 10 1 7 11 8 6
4 -17 -4 -19 -2 -33 3 -33 9 0 51 67 52 83 1 28 49 59 156 102 36 14 247 27
240 14 -3 -4 9 -12 27 -18 38 -13 48 -14 28 -1 -13 8 -12 10 3 10 10 0 20 -7
23 -15 4 -8 13 -15 20 -15 8 0 17 -7 21 -16 3 -8 12 -13 19 -10 8 3 13 2 11
-2 -2 -8 42 -82 49 -82 3 0 3 4 0 9 -3 4 1 17 9 27 21 28 18 43 -4 18 -17 -21
-18 -21 -29 -3 -6 10 -9 25 -6 34 7 17 24 21 24 5 0 -16 18 -12 40 10 11 11
20 16 20 11 0 -6 -4 -12 -10 -16 -5 -3 -6 -13 -3 -21 5 -13 8 -13 15 -2 6 9 7
3 3 -17 -6 -28 -6 -29 9 -10 14 19 15 19 21 -10 4 -17 13 -43 22 -60 l14 -30
-6 30 c-6 34 -76 179 -99 210 -16 19 -16 19 -12 -7 3 -15 7 -32 11 -38 3 -5
-1 -10 -10 -10 -13 0 -15 8 -11 46 l5 45 -60 44 c-66 48 -122 70 -219 84 -86
12 -122 11 -202 -4z m456 -161 c3 -8 2 -12 -4 -9 -6 3 -10 1 -10 -6 0 -7 -3
-10 -6 -6 -7 6 2 37 10 37 2 0 7 -7 10 -16z m-69 -23 c-6 -5 -30 -11 -55 -14
l-45 -5 40 13 c48 16 73 19 60 6z m53 -23 c7 -7 12 -15 12 -19 0 -14 -31 -18
-50 -7 -17 11 -17 13 -2 25 21 16 25 16 40 1z m-741 -240 c-2 -13 -4 -3 -4 22
0 25 2 35 4 23 2 -13 2 -33 0 -45z m110 -20 c-3 -8 -6 -5 -6 6 -1 11 2 17 5
13 3 -3 4 -12 1 -19z m-35 -78 c-3 -32 0 -50 7 -50 18 0 12 -36 -9 -55 -11
-10 -20 -15 -21 -12 -6 43 9 167 19 167 4 0 5 -22 4 -50z m25 -22 c-3 -8 -6
-5 -6 6 -1 11 2 17 5 13 3 -3 4 -12 1 -19z m-140 -150 c-2 -13 -4 -3 -4 22 0
25 2 35 4 23 2 -13 2 -33 0 -45z m0 -160 c-2 -13 -4 -3 -4 22 0 25 2 35 4 23
2 -13 2 -33 0 -45z m0 -80 c-2 -13 -4 -5 -4 17 -1 22 1 32 4 23 2 -10 2 -28 0
-40z m90 -203 c-1 -19 -5 -35 -9 -35 -5 0 -8 5 -8 11 0 5 -6 7 -12 3 -10 -6
-10 -5 -1 8 7 8 10 18 6 22 -4 4 -1 11 7 16 21 13 20 14 17 -25z m-47 -46 c0
-16 -4 -28 -9 -25 -8 5 -3 56 5 56 2 0 4 -14 4 -31z m70 -65 c0 -14 -6 -24
-14 -24 -8 0 -13 8 -11 18 2 9 4 23 4 30 2 24 21 1 21 -24z m-48 7 c7 11 9 11
6 1 -5 -17 -23 -17 -24 0 -1 9 1 8 4 -1 3 -12 5 -12 14 0z m35 -148 c-3 -10
-5 -4 -5 12 0 17 2 24 5 18 2 -7 2 -21 0 -30z m30 5 c-3 -8 -6 -5 -6 6 -1 11
2 17 5 13 3 -3 4 -12 1 -19z m526 -109 c-24 -4 -62 -4 -85 0 -37 8 -31 9 42 9
73 0 79 -1 43 -9z m-90 -16 c-7 -2 -19 -2 -25 0 -7 3 -2 5 12 5 14 0 19 -2 13
-5z m137 -3 c11 -8 7 -9 -15 -4 -37 8 -45 14 -19 14 10 0 26 -5 34 -10z m-21
-16 c9 -8 -65 -2 -84 7 -13 6 -4 7 30 3 28 -4 52 -8 54 -10z m-432 0 c-3 -3
-12 -4 -19 -1 -8 3 -5 6 6 6 11 1 17 -2 13 -5z m403 -21 c3 -3 -10 -3 -29 1
-18 3 -46 6 -62 6 -16 0 -29 4 -29 8 0 9 111 -5 120 -15z m184 6 c21 -6 47
-12 57 -14 10 -2 27 -8 36 -14 33 -19 -16 -12 -92 14 -71 24 -72 34 -1 14z
m-251 -26 c-7 -2 -19 -2 -25 0 -7 3 -2 5 12 5 14 0 19 -2 13 -5z"/>
<path d="M780 1420 c0 -5 5 -10 10 -10 6 0 10 5 10 10 0 6 -4 10 -10 10 -5 0
-10 -4 -10 -10z"/>
<path d="M2378 1623 c7 -3 16 -2 19 1 4 3 -2 6 -13 5 -11 0 -14 -3 -6 -6z"/>
<path d="M2650 1617 c0 -2 7 -18 15 -33 13 -25 15 -26 15 -8 0 12 -7 27 -15
34 -8 7 -15 10 -15 7z"/>
<path d="M4508 1573 c7 -3 16 -2 19 1 4 3 -2 6 -13 5 -11 0 -14 -3 -6 -6z"/>
<path d="M3412 1520 c0 -14 2 -19 5 -12 2 6 2 18 0 25 -3 6 -5 1 -5 -13z"/>
<path d="M4568 1533 c6 -2 18 -2 25 0 6 3 1 5 -13 5 -14 0 -19 -2 -12 -5z"/>
<path d="M1578 1523 c6 -2 18 -2 25 0 6 3 1 5 -13 5 -14 0 -19 -2 -12 -5z"/>
<path d="M4689 1523 c14 -3 36 -12 50 -21 l26 -16 -22 22 c-13 13 -33 21 -50
21 -26 -2 -26 -2 -4 -6z"/>
<path d="M4141 1494 c0 -11 3 -14 6 -6 3 7 2 16 -1 19 -3 4 -6 -2 -5 -13z"/>
<path d="M4906 1434 c-5 -14 -4 -15 9 -4 17 14 19 20 6 20 -5 0 -12 -7 -15
-16z"/>
<path d="M4121 1424 c0 -11 3 -14 6 -6 3 7 2 16 -1 19 -3 4 -6 -2 -5 -13z"/>
<path d="M4940 1410 c6 -11 13 -20 16 -20 2 0 0 9 -6 20 -6 11 -13 20 -16 20
-2 0 0 -9 6 -20z"/>
<path d="M1524 1400 c0 -13 4 -16 10 -10 7 7 7 13 0 20 -6 6 -10 3 -10 -10z"/>
<path d="M4475 1394 c-95 -32 -153 -63 -176 -92 -34 -43 -34 -43 -75 -537 -21
-256 -29 -501 -16 -509 5 -3 34 0 64 8 l53 13 -3 75 c-5 97 9 144 54 191 47
48 81 49 132 3 l37 -34 3 -99 c3 -128 7 -140 42 -158 35 -18 106 -20 113 -2 2
6 -2 68 -9 137 -8 69 -18 324 -23 568 -6 243 -13 447 -16 452 -11 18 -108 9
-180 -16z m70 -312 c11 -88 16 -191 14 -272 -4 -119 -6 -131 -27 -152 -18 -19
-33 -23 -85 -23 l-62 0 1 110 c1 99 6 126 47 270 55 188 64 220 73 260 l7 30
8 -40 c4 -22 15 -104 24 -183z"/>
<path d="M3529 1371 c-22 -18 -24 -26 -23 -113 0 -51 4 -135 9 -185 9 -99 1
-116 -31 -67 -49 73 -180 71 -214 -5 -14 -30 -35 -363 -33 -516 2 -154 13
-182 87 -220 56 -28 67 -29 182 -30 73 0 127 4 133 10 26 26 40 707 21 980
-11 154 -16 165 -76 165 -17 0 -42 -9 -55 -19z m-35 -473 c14 -19 16 -62 16
-273 0 -278 -4 -298 -56 -303 -68 -7 -77 37 -72 343 4 238 8 255 63 255 24 0
39 -7 49 -22z"/>
<path d="M1363 1340 c0 -25 2 -35 4 -22 2 12 2 32 0 45 -2 12 -4 2 -4 -23z"/>
<path d="M4975 1357 c19 -29 53 -53 63 -43 3 3 0 6 -7 6 -7 0 -26 15 -43 33
-28 29 -29 30 -13 4z"/>
<path d="M820 1360 c0 -5 5 -10 10 -10 6 0 10 5 10 10 0 6 -4 10 -10 10 -5 0
-10 -4 -10 -10z"/>
<path d="M2298 1357 c-36 -28 -51 -576 -26 -980 11 -190 12 -197 33 -197 12 0
41 13 66 29 42 26 47 33 59 90 10 47 11 104 5 234 -14 292 -13 352 9 376 24
27 60 27 87 0 23 -23 23 0 3 -407 -6 -122 6 -232 28 -259 6 -7 32 -13 59 -13
78 0 84 16 84 230 0 227 -14 456 -31 497 -35 86 -159 97 -213 18 -13 -19 -28
-32 -33 -28 -10 5 -7 93 8 265 8 80 -7 131 -42 147 -32 14 -75 14 -96 -2z"/>
<path d="M2641 1354 c0 -11 3 -14 6 -6 3 7 2 16 -1 19 -3 4 -6 -2 -5 -13z"/>
<path d="M1664 1350 c-55 -22 -68 -105 -23 -146 28 -25 105 -26 142 -1 23 15
27 25 27 63 0 36 -5 50 -26 69 -28 26 -78 32 -120 15z"/>
<path d="M423 1324 c-41 -20 -57 -35 -75 -72 -23 -46 -23 -53 -26 -427 -3
-331 -1 -388 13 -442 29 -108 103 -150 241 -140 148 11 185 57 199 243 6 79 6
80 -20 92 -33 15 -73 15 -114 1 l-32 -11 5 -72 c4 -45 1 -84 -7 -106 -11 -31
-16 -35 -52 -38 -53 -3 -66 7 -76 59 -11 57 -11 711 0 767 10 52 17 60 57 68
21 4 37 0 54 -14 23 -18 25 -27 25 -102 0 -94 5 -100 81 -100 79 0 85 9 74
113 -16 160 -65 207 -215 207 -67 0 -90 -4 -132 -26z"/>
<path d="M875 1330 c-3 -5 -1 -10 4 -10 6 0 11 5 11 10 0 6 -2 10 -4 10 -3 0
-8 -4 -11 -10z"/>
<path d="M862 1290 c0 -14 2 -19 5 -12 2 6 2 18 0 25 -3 6 -5 1 -5 -13z"/>
<path d="M3298 1293 c7 -3 16 -2 19 1 4 3 -2 6 -13 5 -11 0 -14 -3 -6 -6z"/>
<path d="M3870 1275 c13 -14 26 -25 28 -25 3 0 -5 11 -18 25 -13 14 -26 25
-28 25 -3 0 5 -11 18 -25z"/>
<path d="M5340 1296 c0 -2 13 -6 29 -8 17 -2 28 -1 25 4 -5 8 -54 12 -54 4z"/>
<path d="M1303 1233 c-29 -29 -44 -49 -35 -44 21 12 97 90 91 94 -2 1 -27 -21
-56 -50z"/>
<path d="M2647 1279 c7 -7 15 -10 18 -7 3 3 -2 9 -12 12 -14 6 -15 5 -6 -5z"/>
<path d="M5278 1283 c6 -2 18 -2 25 0 6 3 1 5 -13 5 -14 0 -19 -2 -12 -5z"/>
<path d="M5422 1284 c3 -3 20 -7 37 -9 17 -2 58 -15 91 -28 65 -27 79 -27 29
-1 -56 28 -177 58 -157 38z"/>
<path d="M2688 1273 c6 -2 18 -2 25 0 6 3 1 5 -13 5 -14 0 -19 -2 -12 -5z"/>
<path d="M4025 1269 c-11 -17 1 -21 15 -4 8 9 8 15 2 15 -6 0 -14 -5 -17 -11z"/>
<path d="M5200 1270 c-34 -7 -34 -7 -5 -8 17 0 39 3 50 8 24 10 4 10 -45 0z"/>
<path d="M2808 1263 c7 -3 16 -2 19 1 4 3 -2 6 -13 5 -11 0 -14 -3 -6 -6z"/>
<path d="M2888 1253 c6 -2 18 -2 25 0 6 3 1 5 -13 5 -14 0 -19 -2 -12 -5z"/>
<path d="M3134 1234 c-18 -14 -18 -15 4 -4 12 6 22 13 22 15 0 8 -5 6 -26 -11z"/>
<path d="M952 1195 c-15 -32 -15 -35 0 -35 6 0 8 3 5 6 -3 4 -2 15 4 26 6 11
9 22 6 24 -2 2 -9 -7 -15 -21z"/>
<path d="M5665 1172 c48 -51 71 -69 44 -35 -20 25 -40 45 -69 68 -14 11 -3 -4
25 -33z"/>
<path d="M1140 1153 c14 -2 31 -12 38 -21 10 -13 14 -14 25 -2 7 7 7 10 1 7
-7 -4 -17 0 -24 8 -7 8 -24 14 -39 14 l-26 -2 25 -4z"/>
<path d="M5720 1105 c0 -5 5 -17 10 -25 5 -8 10 -10 10 -5 0 6 -5 17 -10 25
-5 8 -10 11 -10 5z"/>
<path d="M4731 1087 c-23 -28 -35 -338 -22 -557 14 -241 19 -280 38 -287 17
-7 87 23 108 47 28 31 40 168 27 324 -7 77 -12 182 -12 232 0 77 3 94 19 108
14 13 28 16 50 11 59 -13 61 -30 46 -386 -9 -219 -1 -290 33 -316 18 -13 90
-17 108 -5 7 4 17 42 24 85 12 75 9 201 -15 540 -9 124 -48 170 -147 171 -40
1 -52 -4 -80 -31 -41 -40 -52 -41 -45 -6 7 36 0 51 -34 68 -35 19 -83 19 -98
2z"/>
<path d="M3220 1080 c-8 -5 -12 -11 -10 -14 3 -2 14 2 24 10 22 15 10 19 -14
4z"/>
<path d="M2980 1069 c-47 -5 -107 -9 -134 -10 -33 -1 -44 -4 -35 -10 8 -5 73
-9 144 -10 166 -1 184 -2 178 -11 -6 -12 12 -10 42 4 14 6 25 19 25 30 0 16
-8 18 -67 17 -38 -1 -106 -6 -153 -10z"/>
<path d="M2740 1054 c0 -1 6 -7 14 -13 10 -8 16 -8 25 3 10 11 7 14 -14 12
-14 0 -25 -2 -25 -2z"/>
<path d="M3745 1048 c8 -21 14 -22 35 -7 13 9 13 10 -1 6 -9 -3 -22 0 -28 6
-9 9 -11 8 -6 -5z"/>
<path d="M5741 1055 c1 -19 18 -51 18 -35 0 8 -4 22 -9 30 -5 8 -9 11 -9 5z"/>
<path d="M1667 1028 c-28 -22 -42 -297 -27 -543 6 -110 17 -211 24 -225 10
-22 18 -25 61 -25 l50 0 1 395 c0 270 -3 397 -10 402 -18 12 -81 9 -99 -4z"/>
<path d="M955 1014 c-101 -37 -115 -83 -115 -379 0 -245 10 -306 57 -349 55
-51 208 -59 278 -16 64 40 70 66 73 342 3 265 -2 307 -43 357 -47 55 -164 76
-250 45z m146 -111 c6 -16 9 -126 7 -286 -3 -243 -4 -260 -22 -273 -28 -20
-60 -17 -82 7 -18 20 -19 39 -19 273 0 138 3 263 8 279 7 24 12 27 52 27 40 0
47 -3 56 -27z"/>
<path d="M1326 1017 c-46 -14 -61 -34 -52 -70 9 -36 43 -43 115 -25 78 20 85
14 76 -58 -8 -63 -30 -132 -77 -234 -17 -36 -40 -87 -53 -115 -43 -94 -78
-215 -69 -238 12 -33 152 -50 277 -33 84 11 109 47 68 97 l-19 24 -69 -18
c-108 -28 -107 -28 -100 51 6 83 33 163 97 294 60 121 103 246 98 285 -2 22
-11 31 -38 40 -45 15 -203 15 -254 0z"/>
<path d="M1837 1023 c-12 -19 -19 -353 -12 -557 7 -218 8 -226 29 -232 30 -10
86 -6 101 6 23 19 28 136 16 324 -14 206 -5 331 25 353 25 18 48 16 75 -6 24
-19 24 -21 19 -163 -7 -213 -6 -449 3 -481 9 -31 87 -87 123 -87 20 0 23 7 30
66 3 37 3 108 -1 158 -4 50 -10 198 -14 329 l-6 239 -28 23 c-31 27 -84 40
-124 30 -15 -3 -41 -22 -59 -41 -39 -41 -56 -43 -52 -7 2 20 -3 30 -22 40 -27
14 -96 18 -103 6z"/>
<path d="M5299 985 c-25 -8 -52 -23 -61 -32 -37 -43 -52 -156 -22 -167 22 -8
87 -7 99 2 6 4 11 27 12 51 1 47 20 71 56 71 35 0 57 -19 57 -50 0 -16 5 -52
11 -80 7 -33 8 -55 2 -61 -6 -6 -50 -16 -99 -24 -108 -18 -125 -26 -153 -75
-17 -31 -21 -54 -21 -133 0 -185 26 -237 125 -245 53 -4 55 -3 95 37 23 23 46
39 51 35 6 -4 4 -13 -7 -25 -16 -18 -15 -19 21 -35 29 -12 44 -13 62 -5 23 10
23 14 23 153 0 79 -7 235 -16 348 -20 245 -19 243 -121 247 -40 2 -87 -4 -114
-12z m153 -371 c14 -30 -6 -250 -25 -272 -6 -7 -25 -12 -46 -10 -49 4 -61 32
-61 140 0 97 9 127 48 151 40 25 70 21 84 -9z"/>
<path d="M2899 980 c-92 -11 -124 -44 -137 -139 l-9 -61 32 -6 c58 -11 90 -2
93 26 8 71 27 100 67 100 35 0 52 -24 60 -82 3 -29 8 -65 11 -80 7 -34 -14
-44 -128 -60 -68 -10 -81 -15 -110 -45 l-33 -34 0 -137 c0 -90 4 -148 13 -168
17 -41 60 -64 117 -64 41 0 52 5 81 35 31 33 54 45 54 27 0 -4 -5 -13 -10 -18
-14 -14 7 -32 47 -40 21 -4 35 -1 48 12 17 17 18 34 11 229 -8 271 -28 471
-47 489 -18 18 -90 25 -160 16z m112 -371 c12 -23 5 -176 -12 -242 -16 -61
-80 -71 -109 -17 -11 21 -14 210 -2 225 17 24 66 55 88 55 13 0 28 -9 35 -21z"/>
<path d="M72 890 l1 -95 7 67 c5 37 5 80 0 95 -6 19 -8 -2 -8 -67z"/>
<path d="M3830 962 c-47 -23 -71 -73 -68 -137 l3 -50 55 0 55 0 7 50 c7 52 27
75 62 75 36 0 49 -17 57 -73 4 -31 10 -69 14 -86 6 -27 3 -32 -21 -41 -14 -6
-61 -16 -102 -22 -63 -9 -81 -16 -111 -44 l-36 -32 -3 -128 c-5 -191 24 -244
133 -244 41 0 52 5 81 35 32 34 54 45 54 26 0 -6 -4 -13 -10 -16 -17 -10 -11
-21 15 -33 35 -16 61 -15 79 4 13 12 16 39 16 127 1 175 -30 558 -46 585 -13
20 -22 22 -107 22 -68 0 -101 -5 -127 -18z m176 -358 c16 -23 16 -36 4 -140
-7 -63 -18 -121 -24 -129 -17 -22 -59 -28 -81 -11 -17 12 -20 28 -23 122 -4
120 3 144 52 168 43 21 53 20 72 -10z"/>
<path d="M5771 944 c0 -11 3 -14 6 -6 3 7 2 16 -1 19 -3 4 -6 -2 -5 -13z"/>
<path d="M173 900 c0 -25 2 -35 4 -22 2 12 2 32 0 45 -2 12 -4 2 -4 -23z"/>
<path d="M5793 805 c0 -22 2 -30 4 -17 2 12 2 30 0 40 -3 9 -5 -1 -4 -23z"/>
<path d="M72 720 c0 -14 2 -19 5 -12 2 6 2 18 0 25 -3 6 -5 1 -5 -13z"/>
<path d="M54 625 c1 -85 2 -93 9 -53 5 26 5 69 0 100 -8 48 -9 44 -9 -47z"/>
<path d="M171 644 c0 -11 3 -14 6 -6 3 7 2 16 -1 19 -3 4 -6 -2 -5 -13z"/>
<path d="M170 543 c-3 -29 -1 -48 3 -44 5 5 7 28 5 52 l-3 44 -5 -52z"/>
<path d="M5793 510 c0 -25 2 -35 4 -22 2 12 2 32 0 45 -2 12 -4 2 -4 -23z"/>
<path d="M170 461 c0 -25 6 -27 13 -6 4 8 2 17 -3 20 -6 4 -10 -3 -10 -14z"/>
<path d="M185 420 c3 -5 8 -10 11 -10 2 0 4 5 4 10 0 6 -5 10 -11 10 -5 0 -7
-4 -4 -10z"/>
<path d="M5768 365 c-3 -14 -1 -25 3 -25 5 0 9 11 9 25 0 14 -2 25 -4 25 -2 0
-6 -11 -8 -25z"/>
<path d="M5746 278 c-5 -20 -8 -21 -17 -8 -9 13 -10 13 -6 -2 3 -9 1 -18 -5
-20 -6 -2 -3 -10 6 -17 14 -12 16 -12 10 4 -5 12 -4 16 3 12 6 -4 14 4 17 19
9 33 1 43 -8 12z"/>
<path d="M786 228 c3 -5 -2 -19 -13 -31 -18 -22 -18 -22 3 -4 24 20 41 23 26
4 -9 -10 -3 -13 25 -14 20 0 30 3 23 7 -9 6 -9 9 1 13 12 4 12 7 1 18 -11 12
-13 12 -10 -1 2 -8 -4 -15 -12 -15 -8 0 -15 6 -15 14 0 8 -8 15 -18 17 -9 1
-14 -2 -11 -8z"/>
<path d="M5705 200 c5 -15 3 -18 -9 -14 -9 3 -16 1 -16 -5 0 -6 -8 -8 -17 -5
-15 5 -15 4 -3 -5 8 -5 11 -13 7 -17 -4 -4 -15 0 -25 9 -23 21 -33 22 -26 2 4
-8 1 -15 -5 -15 -6 0 -11 -8 -11 -17 0 -15 1 -15 14 2 14 19 46 15 46 -5 0 -6
-5 -8 -10 -5 -6 3 -17 -1 -25 -9 -9 -8 -22 -13 -30 -10 -8 3 -23 -1 -35 -9
-19 -13 -19 -15 -4 -21 9 -4 14 -9 11 -12 -3 -3 -14 -1 -24 4 -22 12 -80 -9
-89 -32 -5 -14 -8 -14 -21 -1 -17 18 -63 20 -63 3 0 -9 -3 -9 -12 0 -17 17
-54 15 -72 -3 -10 -10 -38 -15 -88 -16 -63 -2 -56 -3 47 -10 145 -11 237 1
320 40 64 30 126 84 150 130 13 26 13 30 -1 35 -12 4 -14 1 -9 -14z m-15 -40
c-6 -11 -13 -20 -16 -20 -2 0 0 9 6 20 6 11 13 20 16 20 2 0 0 -9 -6 -20z
m-50 -54 c0 -2 -11 -11 -25 -20 -19 -13 -30 -14 -43 -6 -14 9 -13 10 7 4 17
-4 21 -3 16 6 -5 8 -4 11 1 7 6 -3 16 -2 24 4 17 10 20 11 20 5z m-123 -62
c-16 -9 -31 -13 -34 -10 -3 3 5 10 18 15 37 15 47 12 16 -5z m-104 -11 c-7 -2
-19 -2 -25 0 -7 3 -2 5 12 5 14 0 19 -2 13 -5z m-86 -19 c-3 -3 -12 -4 -19 -1
-8 3 -5 6 6 6 11 1 17 -2 13 -5z"/>
<path d="M640 160 c0 -12 24 -12 60 0 21 7 19 8 -17 9 -24 1 -43 -3 -43 -9z"/>
<path d="M5490 91 c-14 -4 -20 -10 -15 -13 6 -3 21 0 35 8 27 14 20 16 -20 5z"/>
<path d="M1213 53 c9 -2 23 -2 30 0 6 3 -1 5 -18 5 -16 0 -22 -2 -12 -5z"/>
<path d="M1280 50 c0 -5 5 -10 10 -10 6 0 10 5 10 10 0 6 -4 10 -10 10 -5 0
-10 -4 -10 -10z"/>
<path d="M3508 53 c17 -2 47 -2 65 0 17 2 3 4 -33 4 -36 0 -50 -2 -32 -4z"/>
<path d="M3368 43 c6 -2 18 -2 25 0 6 3 1 5 -13 5 -14 0 -19 -2 -12 -5z"/>
<path d="M3688 43 c6 -2 18 -2 25 0 6 3 1 5 -13 5 -14 0 -19 -2 -12 -5z"/>
<path d="M1615 25 c22 -8 545 -11 545 -3 0 4 -125 8 -277 7 -153 0 -273 -2
-268 -4z"/>
<path d="M2318 23 c45 -2 119 -2 165 0 45 1 8 3 -83 3 -91 0 -128 -2 -82 -3z"/>
<path d="M3213 23 c9 -2 23 -2 30 0 6 3 -1 5 -18 5 -16 0 -22 -2 -12 -5z"/>
<path d="M3873 23 c9 -2 25 -2 35 0 9 3 1 5 -18 5 -19 0 -27 -2 -17 -5z"/>
<path d="M4543 23 c65 -2 168 -2 230 0 62 1 9 3 -118 3 -126 0 -177 -2 -112
-3z"/>
<path d="M2837 13 c18 -2 50 -2 70 0 21 2 7 4 -32 4 -38 0 -55 -2 -38 -4z"/>
<path d="M3108 13 c6 -2 18 -2 25 0 6 3 1 5 -13 5 -14 0 -19 -2 -12 -5z"/>
<path d="M4955 9 c22 -4 51 -8 65 -7 23 0 22 1 -5 8 -16 4 -46 8 -65 8 l-35 0
40 -9z"/>
<path d="M5080 10 c-24 -8 -23 -8 8 -9 17 -1 32 4 32 9 0 11 -5 11 -40 0z"/>
</g>
</svg>
