<svg xmlns="http://www.w3.org/2000/svg" width="725" height="213" preserveAspectRatio="xMidYMid meet" version="1.0"><rect id="backgroundrect" width="100%" height="100%" x="0" y="0" fill="none" stroke="none"/><g class="currentLayer"><title>Layer 1</title><path id="svg_3" fill="#7d562d" fill-opacity="1" d="M567.2000084519386,36.49999736994505 c-10.900000162422657,2.400000035762787 -23.500000350177288,7.700000114738941 -28.000000417232513,11.900000177323818 c-5.4000000804662704,4.800000071525574 -6.100000090897083,8.600000128149986 -9.700000144541264,51.10000076144934 c-3.0000000447034836,35.10000052303076 -5.100000075995922,75.00000111758709 -4.100000061094761,78.90000117570162 c0.6000000089406967,2.600000038743019 0.9000000134110451,2.8000000417232513 4.400000065565109,2.1000000312924385 c2.0000000298023224,-0.30000000447034836 5.300000078976154,-1.0000000149011612 7.300000108778477,-1.5000000223517418 l3.500000052154064,-1.0000000149011612 l-0.4000000059604645,-8.800000131130219 c-0.6000000089406967,-11.800000175833702 1.3000000193715096,-18.500000275671482 6.800000101327896,-24.00000035762787 c6.400000095367432,-6.3000000938773155 9.100000135600567,-6.400000095367432 17.200000256299973,0 l3.6000000536441803,2.8000000417232513 l0.7000000104308128,14.100000210106373 c0.7000000104308128,12.300000183284283 1.0000000149011612,14.400000214576721 2.9000000432133675,16.600000247359276 c2.400000035762787,2.8000000417232513 9.500000141561031,4.700000070035458 13.90000020712614,3.7000000551342964 l3.0000000447034836,-0.6000000089406967 l-0.7000000104308128,-7.200000107288361 c-1.5000000223517418,-17.600000262260437 -2.600000038743019,-39.90000059455633 -3.6000000536441803,-76.10000113397837 c-0.5000000074505806,-21.500000320374966 -1.3000000193715096,-44.200000658631325 -1.600000023841858,-50.70000075548887 c-0.6000000089406967,-10.800000160932541 -0.800000011920929,-11.700000174343586 -2.8000000417232513,-12.200000181794167 c-3.0000000447034836,-0.800000011920929 -5.200000077486038,-0.6000000089406967 -12.400000184774399,0.9000000134110451 zm-2.2000000327825546,16.20000024139881 c0,0.5000000074505806 0.9000000134110451,7.500000111758709 2.0000000298023224,15.800000235438347 c2.400000035762787,18.500000275671482 3.500000052154064,40.40000060200691 2.600000038743019,50.80000075697899 c-0.6000000089406967,6.200000092387199 -1.3000000193715096,8.400000125169754 -3.300000049173832,10.700000159442425 c-2.400000035762787,2.9000000432133675 -2.8000000417232513,3.0000000447034836 -10.400000154972076,3.0000000447034836 l-7.900000117719173,0 l0,-9.300000138580799 c0,-13.600000202655792 1.4000000208616257,-20.800000309944153 8.50000012665987,-46.10000068694353 c3.6000000536441803,-12.500000186264515 6.500000096857548,-23.500000350177288 6.500000096857548,-24.2000003606081 c0,-1.4000000208616257 2.0000000298023224,-2.0000000298023224 2.0000000298023224,-0.7000000104308128 z"/><path id="svg_5" fill="#c43c30" fill-opacity="1" d="M442.3000065907836,40.999997437000275 c-4.400000065565109,2.7000000402331352 -4.800000071525574,5.900000087916851 -3.400000050663948,28.400000423192978 c0.6000000089406967,10.700000159442425 0.800000011920929,19.30000028759241 0.30000000447034836,19.80000029504299 c-0.5000000074505806,0.5000000074505806 -2.600000038743019,-0.800000011920929 -4.800000071525574,-3.1000000461935997 c-6.800000101327896,-6.70000009983778 -16.50000024586916,-7.700000114738941 -22.70000033825636,-2.2000000327825546 c-2.2000000327825546,2.0000000298023224 -3.1000000461935997,4.000000059604645 -3.8000000566244125,8.00000011920929 c-1.600000023841858,10.400000154972076 -3.1000000461935997,42.8000006377697 -2.8000000417232513,60.10000089555979 c0.4000000059604645,19.60000029206276 1.0000000149011612,21.500000320374966 7.600000113248825,25.900000385940075 c6.70000009983778,4.300000064074993 10.700000159442425,5.100000075995922 26.400000393390656,5.100000075995922 c16.800000250339508,0 16.100000239908695,0.30000000447034836 17.30000025779009,-8.50000012665987 c1.600000023841858,-12.10000018030405 2.600000038743019,-73.60000109672546 1.600000023841858,-98.70000147074461 c-1.0000000149011612,-26.50000039488077 -1.9000000283122063,-33.30000049620867 -4.800000071525574,-35.60000053048134 c-2.3000000342726707,-1.8000000268220901 -7.200000107288361,-1.5000000223517418 -10.900000162422657,0.800000011920929 zm-6.400000095367432,58.900000877678394 c2.600000038743019,2.600000038743019 3.500000052154064,17.30000025779009 2.9000000432133675,44.700000666081905 c-0.6000000089406967,23.100000344216824 -1.3000000193715096,26.100000388920307 -6.100000090897083,27.700000412762165 c-3.9000000581145287,1.3000000193715096 -7.300000108778477,-1.2000000178813934 -8.700000129640102,-6.400000095367432 c-0.800000011920929,-2.8000000417232513 -1.0000000149011612,-14.000000208616257 -0.800000011920929,-33.30000049620867 c0.30000000447034836,-25.900000385940075 0.5000000074505806,-29.500000439584255 2.1000000312924385,-31.900000475347042 c2.2000000327825546,-3.300000049173832 7.700000114738941,-3.7000000551342964 10.600000157952309,-0.800000011920929 z"/><path id="svg_6" fill="#7d562d" fill-opacity="1" d="M287.2000042796135,43.19999746978283 c-2.9000000432133675,3.7000000551342964 -4.300000064074993,25.900000385940075 -4.300000064074993,67.30000100284815 c0,32.80000048875809 1.2000000178813934,66.20000098645687 2.7000000402331352,75.7000011280179 c0.7000000104308128,4.500000067055225 2.400000035762787,4.90000007301569 8.200000122189522,1.9000000283122063 c10.900000162422657,-5.600000083446503 11.900000177323818,-10.900000162422657 10.200000151991844,-49.70000074058771 c-1.3000000193715096,-29.200000435113907 -0.9000000134110451,-36.500000543892384 2.1000000312924385,-39.50000058859587 c2.400000035762787,-2.400000035762787 7.000000104308128,-2.500000037252903 9.900000147521496,-0.10000000149011612 c2.7000000402331352,2.2000000327825546 2.7000000402331352,3.1000000461935997 1.600000023841858,41.70000062137842 c-1.2000000178813934,39.90000059455633 -0.30000000447034836,43.50000064820051 10.600000157952309,43.50000064820051 c9.700000144541264,0 10.400000154972076,-3.0000000447034836 9.500000141561031,-43.50000064820051 c-0.7000000104308128,-30.000000447034836 -1.9000000283122063,-44.00000065565109 -4.200000062584877,-48.50000072270632 c-3.200000047683716,-6.100000090897083 -11.10000016540289,-9.300000138580799 -17.80000026524067,-7.1000001057982445 c-1.8000000268220901,0.6000000089406967 -5.100000075995922,2.9000000432133675 -7.200000107288361,5.100000075995922 c-2.2000000327825546,2.2000000327825546 -4.300000064074993,4.000000059604645 -4.700000070035458,4.000000059604645 c-1.1000000163912773,0 -1.0000000149011612,-12.600000187754631 0.30000000447034836,-27.3000004068017 c1.2000000178813934,-14.400000214576721 0.4000000059604645,-19.400000289082527 -3.8000000566244125,-22.600000336766243 c-2.9000000432133675,-2.400000035762787 -11.400000169873238,-2.9000000432133675 -13.100000195205212,-0.9000000134110451 z"/><path id="svg_7" fill="#7d562d" fill-opacity="1" d="M208.400003105402,43.99999748170376 c-3.300000049173832,1.3000000193715096 -6.400000095367432,5.900000087916851 -6.400000095367432,9.600000143051147 c0,7.600000113248825 4.000000059604645,11.000000163912773 12.800000190734863,10.800000160932541 c7.400000110268593,-0.20000000298023224 10.600000157952309,-2.600000038743019 11.000000163912773,-8.400000125169754 c0.5000000074505806,-6.3000000938773155 -0.5000000074505806,-8.800000131130219 -4.100000061094761,-11.000000163912773 c-3.300000049173832,-2.1000000312924385 -9.600000143051147,-2.500000037252903 -13.300000198185444,-1.0000000149011612 z"/><path id="svg_8" fill="#7d562d" fill-opacity="1" d="M56.70000084489584,45.599997505545616 c-6.400000095367432,2.0000000298023224 -13.100000195205212,8.50000012665987 -14.800000220537186,14.400000214576721 c-1.8000000268220901,6.70000009983778 -1.9000000283122063,98.70000147074461 -0.10000000149011612,105.00000156462193 c3.6000000536441803,12.200000181794167 11.400000169873238,17.400000259280205 26.200000390410423,17.200000256299973 c14.400000214576721,-0.10000000149011612 21.300000317394733,-3.0000000447034836 24.70000036805868,-10.30000015348196 c2.400000035762787,-5.000000074505806 4.300000064074993,-16.100000239908695 4.300000064074993,-24.400000363588333 c0,-5.500000081956387 -0.10000000149011612,-5.600000083446503 -3.7000000551342964,-7.200000107288361 c-3.9000000581145287,-1.600000023841858 -9.600000143051147,-1.4000000208616257 -14.500000216066837,0.5000000074505806 l-2.7000000402331352,1.1000000163912773 l0.6000000089406967,8.800000131130219 c0.7000000104308128,11.400000169873238 -0.800000011920929,16.300000242888927 -5.4000000804662704,17.600000262260437 c-4.300000064074993,1.3000000193715096 -7.900000117719173,0.20000000298023224 -10.000000149011612,-3.0000000447034836 c-1.600000023841858,-2.500000037252903 -1.8000000268220901,-6.70000009983778 -2.1000000312924385,-47.10000070184469 c-0.4000000059604645,-47.800000712275505 0.20000000298023224,-56.50000084191561 3.9000000581145287,-59.50000088661909 c2.8000000417232513,-2.2000000327825546 7.800000116229057,-2.1000000312924385 10.900000162422657,0.20000000298023224 c2.2000000327825546,1.8000000268220901 2.500000037252903,2.8000000417232513 3.0000000447034836,12.10000018030405 c0.6000000089406967,12.10000018030405 1.3000000193715096,13.000000193715096 10.200000151991844,13.000000193715096 c4.500000067055225,0 6.3000000938773155,-0.5000000074505806 7.900000117719173,-2.1000000312924385 c1.9000000283122063,-1.9000000283122063 2.0000000298023224,-2.8000000417232513 1.4000000208616257,-9.700000144541264 c-1.600000023841858,-17.30000025779009 -6.200000092387199,-24.900000371038914 -16.50000024586916,-27.10000040382147 c-7.000000104308128,-1.5000000223517418 -17.50000026077032,-1.3000000193715096 -23.300000347197056,0.5000000074505806 z"/><path id="svg_9" fill="#7d562d" fill-opacity="1" d="M592.1000088229775,76.89999797195196 c-2.9000000432133675,2.9000000432133675 -3.6000000536441803,12.000000178813934 -3.6000000536441803,45.60000067949295 c0.10000000149011612,26.900000400841236 1.4000000208616257,50.900000758469105 3.1000000461935997,57.40000085532665 c0.6000000089406967,2.1000000312924385 1.1000000163912773,2.3000000342726707 4.6000000685453415,1.8000000268220901 c2.2000000327825546,-0.30000000447034836 5.700000084936619,-1.700000025331974 7.800000116229057,-3.1000000461935997 c3.1000000461935997,-2.0000000298023224 4.000000059604645,-3.400000050663948 5.100000075995922,-7.800000116229057 c1.600000023841858,-6.200000092387199 1.700000025331974,-22.40000033378601 0.5000000074505806,-52.90000078827143 c-0.9000000134110451,-21.300000317394733 -0.9000000134110451,-21.600000321865082 1.2000000178813934,-23.70000035315752 c2.7000000402331352,-2.7000000402331352 7.200000107288361,-2.8000000417232513 10.30000015348196,-0.30000000447034836 l2.400000035762787,1.9000000283122063 l-0.30000000447034836,34.900000520050526 c-0.4000000059604645,39.7000005915761 -0.10000000149011612,44.50000066310167 3.300000049173832,47.90000071376562 c2.0000000298023224,2.0000000298023224 3.400000050663948,2.400000035762787 8.400000125169754,2.400000035762787 c5.900000087916851,0 6.000000089406967,0 7.000000104308128,-3.300000049173832 c2.500000037252903,-7.300000108778477 3.1000000461935997,-20.200000301003456 2.1000000312924385,-40.70000060647726 c-1.3000000193715096,-25.200000375509262 -2.600000038743019,-40.40000060200691 -4.000000059604645,-45.10000067204237 c-1.9000000283122063,-6.800000101327896 -8.300000123679638,-10.900000162422657 -17.00000025331974,-10.900000162422657 c-4.300000064074993,0 -5.500000081956387,0.5000000074505806 -9.700000144541264,4.200000062584877 l-4.800000071525574,4.100000061094761 l-0.5000000074505806,-4.90000007301569 c-0.5000000074505806,-4.6000000685453415 -0.7000000104308128,-5.000000074505806 -5.000000074505806,-7.200000107288361 c-5.4000000804662704,-2.7000000402331352 -8.400000125169754,-2.8000000417232513 -10.900000162422657,-0.30000000447034836 z"/><path id="svg_10" fill="#7d562d" fill-opacity="1" d="M209.30000311881304,83.79999807476997 c-2.400000035762787,1.5000000223517418 -3.400000050663948,6.800000101327896 -4.500000067055225,24.300000362098217 c-1.600000023841858,26.00000038743019 0.9000000134110451,69.40000103414059 4.300000064074993,73.50000109523535 c0.7000000104308128,0.9000000134110451 3.200000047683716,1.4000000208616257 7.000000104308128,1.4000000208616257 l5.900000087916851,0 l-0.10000000149011612,-44.80000066757202 c0,-24.600000366568565 -0.4000000059604645,-47.000000700354576 -0.7000000104308128,-49.70000074058771 l-0.7000000104308128,-5.000000074505806 l-5.000000074505806,-0.30000000447034836 c-2.7000000402331352,-0.10000000149011612 -5.500000081956387,0.10000000149011612 -6.200000092387199,0.6000000089406967 z"/><path id="svg_11" fill="#7d562d" fill-opacity="1" d="M122.60000182688236,85.09999809414148 c-6.100000090897083,1.5000000223517418 -11.200000166893005,4.800000071525574 -13.40000019967556,8.800000131130219 c-2.9000000432133675,5.200000077486038 -4.200000062584877,17.30000025779009 -4.200000062584877,39.60000059008598 c0,20.300000302493572 1.2000000178813934,34.20000050961971 3.500000052154064,38.40000057220459 c3.500000052154064,6.800000101327896 10.800000160932541,10.100000150501728 22.40000033378601,10.100000150501728 c9.500000141561031,0 14.200000211596489,-1.3000000193715096 18.500000275671482,-5.100000075995922 c5.100000075995922,-4.500000067055225 5.700000084936619,-8.200000122189522 6.3000000938773155,-39.90000059455633 c0.7000000104308128,-38.90000057965517 -0.5000000074505806,-44.30000066012144 -11.200000166893005,-49.50000073760748 c-5.700000084936619,-2.8000000417232513 -15.900000236928463,-3.9000000581145287 -21.90000032633543,-2.400000035762787 zm14.600000217556953,14.100000210106373 c1.5000000223517418,2.9000000432133675 1.5000000223517418,63.9000009521842 -0.10000000149011612,68.10000101476908 c-1.8000000268220901,4.6000000685453415 -9.80000014603138,4.90000007301569 -12.300000183284283,0.4000000059604645 c-1.0000000149011612,-1.600000023841858 -1.3000000193715096,-10.000000149011612 -1.3000000193715096,-33.70000050216913 c0,-17.30000025779009 0.30000000447034836,-32.70000048726797 0.800000011920929,-34.30000051110983 c0.7000000104308128,-2.500000037252903 1.1000000163912773,-2.7000000402331352 6.200000092387199,-2.7000000402331352 c4.6000000685453415,0 5.600000083446503,0.30000000447034836 6.70000009983778,2.2000000327825546 z"/><path id="svg_12" fill="#7d562d" fill-opacity="1" d="M169.50000252574682,84.89999809116125 c-8.400000125169754,1.4000000208616257 -11.700000174343586,4.700000070035458 -10.000000149011612,10.100000150501728 c1.1000000163912773,3.6000000536441803 5.000000074505806,4.300000064074993 13.700000204145908,2.500000037252903 c4.300000064074993,-0.9000000134110451 8.300000123679638,-1.3000000193715096 8.800000131130219,-1.0000000149011612 c1.8000000268220901,1.1000000163912773 1.0000000149011612,11.300000168383121 -1.5000000223517418,19.400000289082527 c-1.4000000208616257,4.400000065565109 -5.700000084936619,15.000000223517418 -9.500000141561031,23.500000350177288 c-8.400000125169754,18.600000277161598 -12.200000181794167,29.500000439584255 -12.400000184774399,35.60000053048134 c-0.10000000149011612,4.300000064074993 0,4.500000067055225 3.9000000581145287,5.900000087916851 c6.200000092387199,2.400000035762787 31.800000473856926,2.2000000327825546 36.700000546872616,-0.30000000447034836 c5.500000081956387,-2.7000000402331352 5.800000086426735,-6.3000000938773155 1.1000000163912773,-11.700000174343586 c-1.3000000193715096,-1.600000023841858 -1.9000000283122063,-1.5000000223517418 -8.600000128149986,0.20000000298023224 c-4.000000059604645,1.0000000149011612 -8.700000129640102,1.9000000283122063 -10.600000157952309,1.9000000283122063 l-3.400000050663948,0 l0.5000000074505806,-8.200000122189522 c0.7000000104308128,-10.100000150501728 3.500000052154064,-18.80000028014183 12.10000018030405,-37.40000055730343 c11.900000177323818,-25.80000038444996 14.200000211596489,-36.40000054240227 8.400000125169754,-39.20000058412552 c-3.300000049173832,-1.600000023841858 -22.100000329315662,-2.400000035762787 -29.200000435113907,-1.3000000193715096 z"/><path id="svg_13" fill="#7d562d" fill-opacity="1" d="M229.30000341683626,85.1999980956316 c-1.1000000163912773,1.9000000283122063 -1.600000023841858,70.30000104755163 -0.5000000074505806,84.60000126063824 c0.6000000089406967,8.800000131130219 1.3000000193715096,12.600000187754631 2.3000000342726707,13.300000198185444 c1.8000000268220901,1.1000000163912773 11.000000163912773,1.1000000163912773 12.700000189244747,0 c2.8000000417232513,-1.700000025331974 3.200000047683716,-8.800000131130219 2.600000038743019,-41.20000061392784 c-0.7000000104308128,-34.70000051707029 -0.10000000149011612,-41.900000624358654 3.6000000536441803,-43.900000654160976 c2.8000000417232513,-1.5000000223517418 6.200000092387199,-1.2000000178813934 8.900000132620335,0.9000000134110451 l2.3000000342726707,1.8000000268220901 l0.20000000298023224,39.60000059008598 l0.10000000149011612,39.60000059008598 l3.0000000447034836,3.1000000461935997 c3.7000000551342964,3.9000000581145287 9.900000147521496,7.200000107288361 12.800000190734863,6.800000101327896 c4.200000062584877,-0.6000000089406967 4.300000064074993,-5.100000075995922 1.1000000163912773,-84.10000125318766 l-0.6000000089406967,-14.900000222027302 l-4.000000059604645,-2.8000000417232513 c-4.500000067055225,-3.300000049173832 -11.000000163912773,-4.6000000685453415 -14.900000222027302,-3.200000047683716 c-1.4000000208616257,0.6000000089406967 -4.700000070035458,2.9000000432133675 -7.300000108778477,5.100000075995922 c-2.600000038743019,2.3000000342726707 -5.200000077486038,3.9000000581145287 -5.700000084936619,3.6000000536441803 c-0.5000000074505806,-0.4000000059604645 -0.9000000134110451,-2.0000000298023224 -0.9000000134110451,-3.6000000536441803 c0,-2.500000037252903 -0.6000000089406967,-3.300000049173832 -3.500000052154064,-4.500000067055225 c-4.200000062584877,-1.700000025331974 -11.10000016540289,-1.8000000268220901 -12.200000181794167,-0.20000000298023224 z"/><path id="svg_14" fill="#7d562d" fill-opacity="1" d="M663.7000098899007,89.39999815821648 c-2.7000000402331352,0.7000000104308128 -6.100000090897083,2.2000000327825546 -7.500000111758709,3.300000049173832 c-4.90000007301569,3.6000000536441803 -8.200000122189522,18.400000274181366 -4.800000071525574,21.200000315904617 c0.9000000134110451,0.7000000104308128 3.8000000566244125,1.1000000163912773 7.300000108778477,0.9000000134110451 l5.800000086426735,-0.30000000447034836 l0.800000011920929,-4.000000059604645 c0.5000000074505806,-2.2000000327825546 1.1000000163912773,-5.000000074505806 1.3000000193715096,-6.200000092387199 c0.9000000134110451,-5.100000075995922 7.600000113248825,-7.1000001057982445 11.200000166893005,-3.500000052154064 c2.400000035762787,2.400000035762787 5.100000075995922,21.000000312924385 3.200000047683716,22.20000033080578 c-0.7000000104308128,0.4000000059604645 -6.400000095367432,1.8000000268220901 -12.700000189244747,3.0000000447034836 c-12.500000186264515,2.500000037252903 -15.20000022649765,4.000000059604645 -18.30000027269125,10.100000150501728 c-1.700000025331974,3.200000047683716 -2.0000000298023224,5.900000087916851 -2.0000000298023224,17.200000256299973 c0,20.40000030398369 2.500000037252903,26.400000393390656 12.000000178813934,28.60000042617321 c7.200000107288361,1.700000025331974 8.50000012665987,1.4000000208616257 14.100000210106373,-3.400000050663948 c6.000000089406967,-5.100000075995922 9.200000137090683,-6.100000090897083 6.500000096857548,-2.0000000298023224 c-1.700000025331974,2.500000037252903 -1.700000025331974,2.600000038743019 2.0000000298023224,4.100000061094761 c4.90000007301569,2.0000000298023224 8.50000012665987,1.5000000223517418 10.200000151991844,-1.600000023841858 c2.1000000312924385,-4.000000059604645 0.30000000447034836,-54.30000080913305 -2.9000000432133675,-77.80000115931034 c-1.600000023841858,-11.500000171363354 -2.500000037252903,-12.500000186264515 -13.000000193715096,-12.90000019222498 c-5.000000074505806,-0.20000000298023224 -10.30000015348196,0.30000000447034836 -13.200000196695328,1.1000000163912773 zm16.50000024586916,45.3000006750226 c2.2000000327825546,1.9000000283122063 2.400000035762787,10.30000015348196 0.7000000104308128,23.400000348687172 c-1.600000023841858,11.900000177323818 -2.1000000312924385,12.90000019222498 -6.400000095367432,12.90000019222498 c-7.600000113248825,0 -9.500000141561031,-3.7000000551342964 -9.400000140070915,-18.0000002682209 c0,-10.600000157952309 1.4000000208616257,-14.800000220537186 5.800000086426735,-17.700000263750553 c4.000000059604645,-2.7000000402331352 6.800000101327896,-2.9000000432133675 9.300000138580799,-0.6000000089406967 z"/><path id="svg_15" fill="#7d562d" fill-opacity="1" d="M360.5000053718686,90.49999817460775 c-0.5000000074505806,0.20000000298023224 -2.2000000327825546,0.6000000089406967 -3.7000000551342964,0.9000000134110451 c-6.70000009983778,1.5000000223517418 -11.10000016540289,8.900000132620335 -12.000000178813934,20.10000029951334 l-0.30000000447034836,4.000000059604645 l4.90000007301569,0.7000000104308128 c5.100000075995922,0.7000000104308128 9.400000140070915,-0.30000000447034836 10.000000149011612,-2.400000035762787 c0.30000000447034836,-0.7000000104308128 0.7000000104308128,-3.0000000447034836 1.1000000163912773,-5.200000077486038 c0.7000000104308128,-4.400000065565109 4.400000065565109,-8.600000128149986 7.500000111758709,-8.600000128149986 c4.100000061094761,0 6.600000098347664,4.000000059604645 7.800000116229057,12.300000183284283 c2.0000000298023224,13.40000019967556 2.600000038743019,12.800000190734863 -12.800000190734863,15.300000227987766 c-9.200000137090683,1.600000023841858 -10.800000160932541,2.2000000327825546 -15.300000227987766,5.700000084936619 l-4.90000007301569,3.9000000581145287 l0.4000000059604645,18.200000271201134 c0.5000000074505806,19.700000293552876 1.2000000178813934,22.70000033825636 6.3000000938773155,26.00000038743019 c1.5000000223517418,1.0000000149011612 5.000000074505806,2.0000000298023224 7.900000117719173,2.3000000342726707 c6.000000089406967,0.6000000089406967 9.400000140070915,-0.800000011920929 14.000000208616257,-5.600000083446503 c3.7000000551342964,-3.9000000581145287 4.90000007301569,-3.9000000581145287 4.100000061094761,-0.10000000149011612 c-0.6000000089406967,2.8000000417232513 -0.4000000059604645,3.200000047683716 3.1000000461935997,4.6000000685453415 c4.6000000685453415,1.9000000283122063 7.900000117719173,0.800000011920929 9.500000141561031,-3.300000049173832 c1.9000000283122063,-4.90000007301569 -1.3000000193715096,-67.70000100880861 -4.200000062584877,-82.00000122189522 c-0.9000000134110451,-4.500000067055225 -1.4000000208616257,-5.300000078976154 -4.100000061094761,-6.200000092387199 c-2.8000000417232513,-1.0000000149011612 -16.900000251829624,-1.4000000208616257 -19.30000028759241,-0.6000000089406967 zm14.70000021904707,45.200000673532486 c1.5000000223517418,1.3000000193715096 1.8000000268220901,3.1000000461935997 1.8000000268220901,9.700000144541264 c0,11.200000166893005 -1.700000025331974,21.600000321865082 -3.9000000581145287,24.600000366568565 c-3.6000000536441803,5.000000074505806 -10.30000015348196,3.500000052154064 -12.10000018030405,-2.8000000417232513 c-1.2000000178813934,-4.6000000685453415 -1.3000000193715096,-22.20000033080578 -0.10000000149011612,-25.50000037997961 c1.0000000149011612,-2.500000037252903 8.400000125169754,-7.700000114738941 11.000000163912773,-7.700000114738941 c0.800000011920929,0 2.3000000342726707,0.7000000104308128 3.300000049173832,1.700000025331974 z"/><path id="svg_16" fill="#c43c30" fill-opacity="1" d="M484.20000721514225,90.89999818056822 c-7.700000114738941,1.3000000193715096 -12.600000187754631,6.800000101327896 -13.800000205636024,15.400000229477882 c-0.4000000059604645,2.500000037252903 -0.4000000059604645,5.700000084936619 0,7.200000107288361 c0.6000000089406967,2.500000037252903 0.9000000134110451,2.600000038743019 7.400000110268593,2.3000000342726707 c5.000000074505806,-0.20000000298023224 6.70000009983778,-0.7000000104308128 6.900000102818012,-1.8000000268220901 c1.2000000178813934,-9.300000138580799 3.9000000581145287,-14.000000208616257 8.100000120699406,-14.000000208616257 c4.200000062584877,0 6.200000092387199,3.1000000461935997 7.700000114738941,12.000000178813934 c0.800000011920929,4.700000070035458 1.5000000223517418,9.300000138580799 1.5000000223517418,10.30000015348196 c0,2.2000000327825546 -3.1000000461935997,3.400000050663948 -13.500000201165676,5.300000078976154 c-9.500000141561031,1.700000025331974 -11.700000174343586,2.600000038743019 -16.800000250339508,6.600000098347664 l-3.9000000581145287,3.1000000461935997 l0.4000000059604645,18.100000269711018 c0.30000000447034836,16.00000023841858 0.5000000074505806,18.500000275671482 2.3000000342726707,21.600000321865082 c2.500000037252903,4.300000064074993 7.600000113248825,7.000000104308128 13.300000198185444,7.000000104308128 c5.200000077486038,0 7.500000111758709,-1.1000000163912773 12.400000184774399,-5.800000086426735 c3.8000000566244125,-3.6000000536441803 6.200000092387199,-3.7000000551342964 4.000000059604645,-0.10000000149011612 c-1.700000025331974,2.600000038743019 -0.9000000134110451,3.6000000536441803 3.8000000566244125,5.000000074505806 c6.000000089406967,1.8000000268220901 8.600000128149986,-0.4000000059604645 9.600000143051147,-7.800000116229057 c1.3000000193715096,-10.700000159442425 -3.0000000447034836,-75.00000111758709 -5.500000081956387,-81.60000121593475 c-0.6000000089406967,-1.600000023841858 -2.0000000298023224,-2.600000038743019 -4.100000061094761,-3.1000000461935997 c-4.000000059604645,-0.7000000104308128 -14.000000208616257,-0.6000000089406967 -19.80000029504299,0.30000000447034836 zm15.800000235438347,45.80000068247318 c2.1000000312924385,2.600000038743019 2.2000000327825546,3.500000052154064 1.600000023841858,12.800000190734863 c-0.7000000104308128,11.60000017285347 -2.8000000417232513,21.40000031888485 -4.700000070035458,22.600000336766243 c-1.8000000268220901,1.1000000163912773 -7.000000104308128,1.1000000163912773 -8.800000131130219,0 c-1.8000000268220901,-1.1000000163912773 -3.0000000447034836,-8.400000125169754 -3.0000000447034836,-18.900000281631947 c-0.10000000149011612,-10.400000154972076 1.4000000208616257,-14.400000214576721 6.600000098347664,-17.100000254809856 c5.000000074505806,-2.7000000402331352 5.800000086426735,-2.600000038743019 8.300000123679638,0.6000000089406967 z"/></g></svg>